<svg xmlns="http://www.w3.org/2000/svg" width="13" height="14" viewBox="0 0 13 14" fill="none">
  <path fill-rule="evenodd" clip-rule="evenodd" d="M11.5926 2.49547C11.852 2.49547 12.0679 2.71081 12.0679 2.9848V3.23813C12.0679 3.50546 11.852 3.72746 11.5926 3.72746H0.543773C0.283778 3.72746 0.0678711 3.50546 0.0678711 3.23813V2.9848C0.0678711 2.71081 0.283778 2.49547 0.543773 2.49547H2.48758C2.88244 2.49547 3.22607 2.21481 3.3149 1.81881L3.41669 1.36415C3.57489 0.744825 4.09553 0.333496 4.69138 0.333496H7.44436C8.03372 0.333496 8.5602 0.744825 8.71256 1.33149L8.82149 1.81815C8.90967 2.21481 9.2533 2.49547 9.64881 2.49547H11.5926ZM10.6049 11.7561C10.8079 9.86479 11.1632 5.3715 11.1632 5.32617C11.1762 5.18884 11.1314 5.05884 11.0426 4.95417C10.9473 4.85618 10.8267 4.79818 10.6938 4.79818H1.44674C1.31318 4.79818 1.1861 4.85618 1.09792 4.95417C1.00844 5.05884 0.964356 5.18884 0.970839 5.32617C0.972031 5.3345 0.98478 5.49278 1.0061 5.75739C1.10078 6.93289 1.36451 10.2069 1.53492 11.7561C1.65552 12.8974 2.40438 13.6148 3.4891 13.6408C4.32615 13.6601 5.18848 13.6668 6.07026 13.6668C6.90082 13.6668 7.74434 13.6601 8.60732 13.6408C9.72965 13.6214 10.4779 12.9168 10.6049 11.7561Z" fill="#404040"/>
</svg>