<svg xmlns="http://www.w3.org/2000/svg" width="16" height="17" viewBox="0 0 16 17" fill="none">
  <path fill-rule="evenodd" clip-rule="evenodd" d="M4.23441 6.66553C4.08444 6.5155 4.00018 6.31206 4.00018 6.09993C4.00018 5.8878 4.08444 5.68435 4.23441 5.53433L7.43441 2.33433C7.58443 2.18435 7.78788 2.1001 8.00001 2.1001C8.21214 2.1001 8.41559 2.18435 8.56561 2.33433L11.7656 5.53433C11.9113 5.68521 11.992 5.88729 11.9902 6.09705C11.9883 6.30681 11.9042 6.50746 11.7559 6.65578C11.6075 6.80411 11.4069 6.88824 11.1971 6.89007C10.9874 6.89189 10.7853 6.81125 10.6344 6.66553L8.80001 4.83113V14.0999C8.80001 14.3121 8.71573 14.5156 8.5657 14.6656C8.41567 14.8156 8.21219 14.8999 8.00001 14.8999C7.78784 14.8999 7.58436 14.8156 7.43433 14.6656C7.2843 14.5156 7.20001 14.3121 7.20001 14.0999V4.83113L5.36561 6.66553C5.21559 6.8155 5.01214 6.89976 4.80001 6.89976C4.58788 6.89976 4.38443 6.8155 4.23441 6.66553Z" fill="#E8E8E8"/>
</svg>