<svg xmlns="http://www.w3.org/2000/svg" width="17" height="16" viewBox="0 0 17 16" fill="none">
  <path d="M4.52002 8.66667V3.33333C4.52002 2.59695 5.11697 2 5.85335 2H11.1867C11.9231 2 12.52 2.59695 12.52 3.33333V8.66667M9.85335 6H7.18669M3.85335 14H13.1867C13.9231 14 14.52 13.403 14.52 12.6667V9.02584C14.52 8.5434 14.0235 8.2207 13.5826 8.41663L9.06154 10.426C8.71678 10.5792 8.32326 10.5792 7.9785 10.426L3.45745 8.41663C3.01659 8.2207 2.52002 8.5434 2.52002 9.02584V12.6667C2.52002 13.403 3.11697 14 3.85335 14Z" stroke="white" stroke-width="1.33333" stroke-linecap="round"/>
</svg>