<svg width="33" height="33" viewBox="0 0 33 33" fill="none" xmlns="http://www.w3.org/2000/svg">
<g clip-path="url(#clip0_37_2503)">
<circle cx="16.4121" cy="16.5" r="16" fill="#F8F8F8" fill-opacity="0.05" style="mix-blend-mode:luminosity"/>
<circle cx="16.4121" cy="16.5" r="15.5" stroke="url(#paint0_linear_37_2503)" stroke-opacity="0.25"/>
<path d="M10.4121 16.5L10.4121 21.5C10.4121 22.0523 10.8598 22.5 11.4121 22.5L16.4121 22.5M22.4121 16.5L22.4122 11.5C22.4122 10.9477 21.9644 10.5 21.4122 10.5L16.4121 10.5M16.0369 16.1249H16.7869M16.0369 16.8749H16.7869M17.4121 16.5C17.4121 17.0523 16.9644 17.5 16.4121 17.5C15.8599 17.5 15.4121 17.0523 15.4121 16.5C15.4121 15.9477 15.8599 15.5 16.4121 15.5C16.9644 15.5 17.4121 15.9477 17.4121 16.5Z" stroke="white" stroke-width="2" stroke-linecap="round"/>
</g>
<defs>
<linearGradient id="paint0_linear_37_2503" x1="16.4121" y1="0.5" x2="30.3327" y2="35.6399" gradientUnits="userSpaceOnUse">
<stop stop-color="white" stop-opacity="0.4"/>
<stop offset="0.4" stop-color="white" stop-opacity="0.01"/>
<stop offset="0.6" stop-color="white" stop-opacity="0.01"/>
<stop offset="1" stop-color="white" stop-opacity="0.1"/>
</linearGradient>
<clipPath id="clip0_37_2503">
<rect x="0.412109" width="32" height="33" rx="3.88958" fill="white"/>
</clipPath>
</defs>
</svg>
