<svg xmlns="http://www.w3.org/2000/svg" width="22" height="22" viewBox="0 0 22 22" fill="none">
  <g clip-path="url(#clip0_71_1406)">
    <path d="M15.3751 0.5H7.50012V14.5H19.7501V4.875C19.7501 3.71468 19.2892 2.60188 18.4687 1.78141C17.6482 0.960936 16.5354 0.5 15.3751 0.5V0.5Z" fill="#9BA1B0"/>
    <path d="M4.34575 14.5534C4.51995 14.5178 4.69732 14.4999 4.87512 14.5H5.75012V0.587524C4.76193 0.789239 3.87378 1.32618 3.23598 2.10748C2.59818 2.88879 2.24992 3.86645 2.25012 4.87502V15.3969C2.86179 14.9354 3.58491 14.6443 4.34575 14.5534V14.5534Z" fill="#9BA1B0"/>
    <path d="M19.7501 16.25H4.87512C4.17893 16.25 3.51125 16.5266 3.01897 17.0188C2.52668 17.5111 2.25012 18.1788 2.25012 18.875C2.25012 19.5712 2.52668 20.2389 3.01897 20.7312C3.51125 21.2234 4.17893 21.5 4.87512 21.5H15.3751C15.9497 21.5 16.5186 21.3868 17.0494 21.167C17.5802 20.9471 18.0625 20.6248 18.4687 20.2186C18.875 19.8123 19.1972 19.33 19.4171 18.7992C19.637 18.2684 19.7501 17.6995 19.7501 17.125V16.25Z" fill="#9BA1B0"/>
  </g>
  <defs>
    <clipPath id="clip0_71_1406">
      <rect width="21" height="21" fill="white" transform="translate(0.5 0.5)"/>
    </clipPath>
  </defs>
</svg>