<svg xmlns="http://www.w3.org/2000/svg" width="18" height="19" viewBox="0 0 18 19" fill="none">
  <path d="M7.90485 9.60544C7.19478 9.60544 6.61914 10.1811 6.61914 10.8912C6.61914 11.6012 7.19478 12.1769 7.90485 12.1769C8.61494 12.1769 9.19057 11.6012 9.19057 10.8912C9.19057 10.1811 8.61494 9.60544 7.90485 9.60544Z" fill="#9BA1B0"/>
  <path fill-rule="evenodd" clip-rule="evenodd" d="M11.858 10.1385C12.3286 10.6435 12.9919 10.8946 13.6539 10.8909C14.5375 12.1527 15.1921 13.3999 15.5326 14.5131C15.9015 15.7193 16.001 17.1329 15.0741 18.0599C14.4732 18.6608 13.6551 18.8243 12.8776 18.7777C12.0986 18.7309 11.2415 18.4708 10.3729 18.0759C9.58788 17.7191 8.75373 17.234 7.90486 16.6395C7.05601 17.234 6.22186 17.7191 5.43688 18.0759C4.56826 18.4708 3.71114 18.7309 2.93215 18.7777C2.15466 18.8243 1.33662 18.6607 0.735701 18.0599C0.134786 17.4589 -0.0288578 16.6408 0.0178764 15.8633C0.0647006 15.0843 0.324757 14.2273 0.719582 13.3586C1.07639 12.5737 1.56153 11.7395 2.15602 10.8907C1.56153 10.0418 1.07639 9.20764 0.719582 8.42266C0.324757 7.55405 0.0647003 6.69692 0.0178763 5.91794C-0.0288576 5.14044 0.134786 4.32239 0.735701 3.72149C1.66265 2.79454 3.07615 2.8941 4.28246 3.26295C5.39593 3.60342 6.64346 4.25831 7.90551 5.14225C7.88777 5.8118 8.13006 6.48834 8.63241 6.96689C8.61914 6.9821 8.60533 6.99696 8.59098 7.01145C8.55231 7.05071 8.51083 7.08606 8.46714 7.11743C7.70161 7.6955 6.91933 8.3744 6.15399 9.13974C5.57336 9.72037 5.04431 10.3089 4.57211 10.8907C5.04431 11.4724 5.57336 12.0609 6.15399 12.6416C6.7346 13.2222 7.3231 13.7512 7.90486 14.2234C8.48665 13.7512 9.07514 13.2222 9.65577 12.6415C10.4214 11.8759 11.1005 11.0933 11.6788 10.3275C11.708 10.2868 11.7408 10.2481 11.7769 10.2117C11.8028 10.1855 11.8299 10.1611 11.858 10.1385ZM3.71853 5.10723C4.45832 5.33344 5.34223 5.7635 6.29909 6.38447C5.79247 6.81419 5.28711 7.27921 4.79028 7.77604C4.29461 8.27171 3.82941 8.77707 3.3987 9.28489C3.02147 8.70364 2.71168 8.14466 2.47529 7.62462C2.13637 6.87902 1.97061 6.26188 1.94298 5.80222C1.91526 5.34106 2.02854 5.15606 2.09941 5.08519C2.21535 4.96923 2.64311 4.7784 3.71853 5.10723ZM2.47529 14.1567C2.71168 13.6366 3.02147 13.0777 3.39869 12.4964C3.82941 13.0042 4.29461 13.5096 4.79028 14.0052C5.28594 14.5009 5.79129 14.966 6.29909 15.3968C5.71785 15.774 5.15888 16.0838 4.63884 16.3203C3.89324 16.6591 3.27609 16.8249 2.81644 16.8526C2.35528 16.8802 2.17028 16.7669 2.09941 16.6961C2.02854 16.6253 1.91526 16.4402 1.94298 15.9791C1.97061 15.5194 2.13637 14.9023 2.47529 14.1567ZM11.1709 16.3203C10.6509 16.0838 10.0919 15.774 9.51063 15.3968C10.0184 14.966 10.5238 14.5009 11.0195 14.0052C11.5163 13.5084 11.9813 13.003 12.4111 12.4964C13.032 13.4533 13.4621 14.3372 13.6882 15.077C14.0171 16.1524 13.8263 16.5801 13.7104 16.6961C13.6395 16.7669 13.4545 16.8802 12.9933 16.8526C12.5337 16.8249 11.9165 16.6592 11.1709 16.3203Z" fill="#9BA1B0"/>
  <path fill-rule="evenodd" clip-rule="evenodd" d="M14.6436 1.72988C14.3988 0.656694 12.8678 0.663387 12.6324 1.73867L12.6231 1.78113L12.6049 1.86404C12.335 3.0727 11.363 4.0002 10.142 4.21262C9.02256 4.40738 9.02257 6.01439 10.142 6.20915C11.3673 6.42231 12.3418 7.35555 12.6077 8.57042L12.6324 8.6831C12.8678 9.75838 14.3988 9.76508 14.6436 8.69188L14.6736 8.56057C14.9496 7.35014 15.9255 6.4238 17.1486 6.211C18.2701 6.0159 18.2701 4.40587 17.1486 4.21075C15.9319 3.9991 14.9599 3.08142 14.678 1.88045C14.6701 1.84715 14.6629 1.81523 14.6551 1.78064L14.6436 1.72988Z" fill="#9BA1B0"/>
</svg>