<svg xmlns="http://www.w3.org/2000/svg" width="24" height="25" viewBox="0 0 24 25" fill="none">
  <path d="M13.8883 7.09668H9.77513C9.63771 7.09668 9.52755 7.21095 9.52457 7.35299C9.44148 11.3455 7.4206 15.1349 3.94226 17.819C3.83183 17.9041 3.80667 18.0642 3.8874 18.1795L6.29391 21.6189C6.37578 21.736 6.53529 21.7624 6.64758 21.6764C8.82248 20.0091 10.5719 17.9978 11.8317 15.7684C13.0915 17.9978 14.841 20.0091 17.0159 21.6764C17.1281 21.7624 17.2876 21.736 17.3695 21.6189L19.7761 18.1795C19.8567 18.0642 19.8316 17.9041 19.7212 17.819C16.2427 15.1349 14.2219 11.3455 14.1389 7.35299C14.1359 7.21095 14.0257 7.09668 13.8883 7.09668Z" fill="#FF875B"/>
</svg>