<svg xmlns="http://www.w3.org/2000/svg" width="17" height="16" viewBox="0 0 17 16" fill="none">
  <path d="M4.66138 6.01257L12.0628 6.01257C12.1938 6.0126 12.3219 6.05147 12.4308 6.12427C12.5397 6.19707 12.6246 6.30053 12.6748 6.42156C12.7249 6.5426 12.738 6.67579 12.7125 6.80428C12.6869 6.93277 12.6238 7.05081 12.5312 7.14346L8.83049 10.8442C8.70626 10.9684 8.53778 11.0381 8.36211 11.0381C8.18644 11.0381 8.01796 10.9684 7.89372 10.8442L4.19299 7.14346C4.10037 7.05081 4.0373 6.93277 4.01175 6.80428C3.98619 6.67579 3.99931 6.5426 4.04945 6.42156C4.09958 6.30053 4.18447 6.19707 4.29339 6.12427C4.40231 6.05147 4.53037 6.0126 4.66138 6.01257Z" fill="#F7F7F8"/>
</svg>