<svg xmlns="http://www.w3.org/2000/svg" width="20" height="20" viewBox="0 0 20 20" fill="none">
  <g clip-path="url(#clip0_71_1892)">
    <path d="M19.8858 5.73359L0 5.82609V5.00025C0.00132321 3.89559 0.440735 2.83655 1.22185 2.05544C2.00296 1.27432 3.062 0.834911 4.16667 0.833588H6.27333C6.66117 0.83391 7.04366 0.924042 7.39083 1.09692L10.0208 2.41692C10.1371 2.47261 10.2645 2.5011 10.3933 2.50025H15.8333C16.7748 2.50213 17.6878 2.82276 18.4237 3.4099C19.1596 3.99704 19.675 4.81609 19.8858 5.73359V5.73359ZM20 7.40025V15.0003C19.9987 16.1049 19.5593 17.164 18.7782 17.9451C17.997 18.7262 16.938 19.1656 15.8333 19.1669H4.16667C3.062 19.1656 2.00296 18.7262 1.22185 17.9451C0.440735 17.164 0.00132321 16.1049 0 15.0003L0 7.49275L20 7.40025ZM13.3333 13.3336C13.3333 13.1126 13.2455 12.9006 13.0893 12.7443C12.933 12.5881 12.721 12.5003 12.5 12.5003H10.8333V10.8336C10.8333 10.6126 10.7455 10.4006 10.5893 10.2443C10.433 10.0881 10.221 10.0003 10 10.0003C9.77899 10.0003 9.56702 10.0881 9.41074 10.2443C9.25446 10.4006 9.16667 10.6126 9.16667 10.8336V12.5003H7.5C7.27899 12.5003 7.06702 12.5881 6.91074 12.7443C6.75446 12.9006 6.66667 13.1126 6.66667 13.3336C6.66667 13.5546 6.75446 13.7666 6.91074 13.9228C7.06702 14.0791 7.27899 14.1669 7.5 14.1669H9.16667V15.8336C9.16667 16.0546 9.25446 16.2666 9.41074 16.4228C9.56702 16.5791 9.77899 16.6669 10 16.6669C10.221 16.6669 10.433 16.5791 10.5893 16.4228C10.7455 16.2666 10.8333 16.0546 10.8333 15.8336V14.1669H12.5C12.721 14.1669 12.933 14.0791 13.0893 13.9228C13.2455 13.7666 13.3333 13.5546 13.3333 13.3336Z" fill="#9BA1B0"/>
  </g>
  <defs>
    <clipPath id="clip0_71_1892">
      <rect width="20" height="20" fill="white"/>
    </clipPath>
  </defs>
</svg>