<svg xmlns="http://www.w3.org/2000/svg" width="17" height="17" viewBox="0 0 17 17" fill="none">
  <path d="M11.646 12.5793C12.3927 12.5793 12.7661 12.5793 13.0513 12.4339C13.3022 12.3061 13.5062 12.1021 13.634 11.8513C13.7793 11.566 13.7793 11.1927 13.7793 10.4459V4.04593C13.7793 3.29919 13.7793 2.92583 13.634 2.64061C13.5062 2.38973 13.3022 2.18575 13.0513 2.05792C12.7661 1.9126 12.3927 1.9126 11.646 1.9126H7.91267C7.16593 1.9126 6.79257 1.9126 6.50735 2.05792C6.25647 2.18575 6.05249 2.38973 5.92466 2.64061C5.77934 2.92583 5.77934 3.29919 5.77934 4.04593M5.246 15.2459H8.97934C9.72607 15.2459 10.0994 15.2459 10.3847 15.1006C10.6355 14.9728 10.8395 14.7688 10.9673 14.5179C11.1127 14.2327 11.1127 13.8593 11.1127 13.1126V6.7126C11.1127 5.96586 11.1127 5.59249 10.9673 5.30728C10.8395 5.05639 10.6355 4.85242 10.3847 4.72459C10.0994 4.57926 9.72607 4.57926 8.97934 4.57926H5.246C4.49927 4.57926 4.1259 4.57926 3.84068 4.72459C3.5898 4.85242 3.38583 5.05639 3.258 5.30728C3.11267 5.59249 3.11267 5.96586 3.11267 6.7126V13.1126C3.11267 13.8593 3.11267 14.2327 3.258 14.5179C3.38583 14.7688 3.5898 14.9728 3.84068 15.1006C4.1259 15.2459 4.49927 15.2459 5.246 15.2459Z" stroke="white" stroke-width="1.33333"/>
</svg>