<svg xmlns="http://www.w3.org/2000/svg" width="204" height="124" viewBox="0 0 204 124" fill="none">
  <path d="M161.049 90.5148C161.049 92.932 159.525 95.3211 156.567 97.5704C153.616 99.8138 149.315 101.856 143.955 103.579C133.24 107.025 118.407 109.164 102 109.164C85.5934 109.164 70.7603 107.025 60.0457 103.579C54.6856 101.856 50.3842 99.8138 47.4334 97.5704C44.4748 95.3211 42.9512 92.932 42.9512 90.5148C42.9512 88.0976 44.4748 85.7085 47.4334 83.4591C50.3842 81.2157 54.6856 79.174 60.0457 77.4503C70.7603 74.0049 85.5934 71.8657 102 71.8657C118.407 71.8657 133.24 74.0049 143.955 77.4503C149.315 79.174 153.616 81.2157 156.567 83.4591C159.525 85.7085 161.049 88.0976 161.049 90.5148Z" stroke="#FDD0FF" stroke-opacity="0.3"/>
  <path opacity="0.2" d="M203.189 90.5145C203.189 94.8027 200.486 98.9743 195.395 102.845C190.312 106.709 182.925 110.211 173.752 113.161C155.412 119.059 130.043 122.715 102 122.715C73.9567 122.715 48.5884 119.059 30.248 113.161C21.0749 110.211 13.6878 106.709 8.60465 102.845C3.51363 98.9743 0.810791 94.8027 0.810791 90.5145C0.810791 86.2263 3.51363 82.0548 8.60465 78.1842C13.6878 74.3196 21.0749 70.8178 30.248 67.8681C48.5884 61.9704 73.9567 58.3145 102 58.3145C130.043 58.3145 155.412 61.9704 173.752 67.8681C182.925 70.8178 190.312 74.3196 195.395 78.1842C200.486 82.0548 203.189 86.2263 203.189 90.5145Z" stroke="#FDD0FF" stroke-opacity="0.3"/>
  <ellipse cx="102" cy="90.5148" rx="37.922" ry="12.1945" fill="#FFA1FC" fill-opacity="0.16"/>
  <g filter="url(#filter0_b_130_1599)">
    <path d="M75.3536 84.7927L66.5684 29.9605C71.3985 8.35193 137.432 13.4362 137.432 29.9605L128.534 87.4773C127.899 90.0195 122.115 95.1039 104.066 95.1039C89.7092 95.1039 81.5046 91.8873 77.7887 89.2918C76.3247 88.2692 75.6361 86.5559 75.3536 84.7927Z" fill="#FFC9FA" fill-opacity="0.16"/>
    <path d="M66.5684 29.9605L75.3536 84.7927C75.6361 86.5559 76.3247 88.2692 77.7887 89.2918C81.5046 91.8873 89.7092 95.1039 104.066 95.1039C122.115 95.1039 127.899 90.0195 128.534 87.4773L137.432 29.9605M66.5684 29.9605C71.3985 8.35193 137.432 13.4362 137.432 29.9605M66.5684 29.9605C68.3241 40.9185 118.109 52.2535 137.432 29.9605" stroke="#6F3FB7" stroke-width="2"/>
  </g>
  <g filter="url(#filter1_b_130_1599)">
    <path d="M94.8912 3.29171L80.2236 38.3564C100.48 44.7743 117.618 40.8995 123.635 38.2254L135.895 9.23777C137.235 6.06859 135.048 2.52416 131.615 2.30067L99.8287 0.231752C97.6984 0.0930936 95.715 1.32226 94.8912 3.29171Z" fill="#C76CFF" fill-opacity="0.56"/>
  </g>
  <defs>
    <filter id="filter0_b_130_1599" x="57.8505" y="6.89766" width="88.2811" height="96.9063" filterUnits="userSpaceOnUse" color-interpolation-filters="sRGB">
      <feFlood flood-opacity="0" result="BackgroundImageFix"/>
      <feGaussianBlur in="BackgroundImageFix" stdDeviation="3.85"/>
      <feComposite in2="SourceAlpha" operator="in" result="effect1_backgroundBlur_130_1599"/>
      <feBlend mode="normal" in="SourceGraphic" in2="effect1_backgroundBlur_130_1599" result="shape"/>
    </filter>
    <filter id="filter1_b_130_1599" x="76.2236" y="-3.77881" width="64.0706" height="49.6318" filterUnits="userSpaceOnUse" color-interpolation-filters="sRGB">
      <feFlood flood-opacity="0" result="BackgroundImageFix"/>
      <feGaussianBlur in="BackgroundImageFix" stdDeviation="2"/>
      <feComposite in2="SourceAlpha" operator="in" result="effect1_backgroundBlur_130_1599"/>
      <feBlend mode="normal" in="SourceGraphic" in2="effect1_backgroundBlur_130_1599" result="shape"/>
    </filter>
  </defs>
</svg>