<svg xmlns="http://www.w3.org/2000/svg" width="12" height="13" viewBox="0 0 12 13" fill="none">
  <path fill-rule="evenodd" clip-rule="evenodd" d="M11.0087 2.55823C11.2356 2.55823 11.4246 2.74665 11.4246 2.9864V3.20806C11.4246 3.44198 11.2356 3.63622 11.0087 3.63622H1.34098C1.11348 3.63622 0.924561 3.44198 0.924561 3.20806V2.9864C0.924561 2.74665 1.11348 2.55823 1.34098 2.55823H3.04181C3.38731 2.55823 3.68799 2.31265 3.76571 1.96616L3.85478 1.56833C3.99321 1.02642 4.44877 0.666504 4.97014 0.666504H7.37899C7.89468 0.666504 8.35535 1.02642 8.48867 1.53975L8.58398 1.96557C8.66113 2.31265 8.96181 2.55823 9.30788 2.55823H11.0087ZM10.1446 10.6616C10.3222 9.00669 10.6331 5.07507 10.6331 5.0354C10.6445 4.91523 10.6053 4.80149 10.5276 4.7099C10.4442 4.62415 10.3387 4.5734 10.2224 4.5734H2.13121C2.01435 4.5734 1.90315 4.62415 1.826 4.7099C1.74771 4.80149 1.70913 4.91523 1.7148 5.0354C1.71584 5.04269 1.727 5.18118 1.74565 5.41271C1.8285 6.44127 2.05926 9.30601 2.20837 10.6616C2.31389 11.6602 2.96915 12.2879 3.91828 12.3107C4.65069 12.3276 5.40523 12.3334 6.17679 12.3334C6.90353 12.3334 7.64162 12.3276 8.39672 12.3107C9.37876 12.2937 10.0334 11.6772 10.1446 10.6616Z" fill="#FF3A3E"/>
</svg>