<svg xmlns="http://www.w3.org/2000/svg" width="15" height="15" viewBox="0 0 15 15" fill="none">
  <path d="M4.30029 13.3335C4.30029 13.6557 4.56146 13.9168 4.88363 13.9168C5.20579 13.9168 5.46696 13.6557 5.46696 13.3335H4.30029ZM5.00679 8.42049L4.48505 8.15962L4.48505 8.15962L5.00679 8.42049ZM6.95609 4.52191L7.47783 4.78279L7.47783 4.78279L6.95609 4.52191ZM7.47783 4.52191L7.99958 4.26104L7.99958 4.26104L7.47783 4.52191ZM9.42712 8.42049L8.90538 8.68137L8.90538 8.68137L9.42712 8.42049ZM8.96696 13.3335C8.96696 13.6557 9.22813 13.9168 9.55029 13.9168C9.87246 13.9168 10.1336 13.6557 10.1336 13.3335H8.96696ZM5.46696 13.3335V8.94224H4.30029V13.3335H5.46696ZM5.52854 8.68137L7.47783 4.78279L6.43434 4.26104L4.48505 8.15962L5.52854 8.68137ZM6.95609 4.78279L8.90538 8.68137L9.94887 8.15962L7.99958 4.26104L6.95609 4.78279ZM8.96696 8.94224V13.3335H10.1336V8.94224H8.96696ZM8.90538 8.68137C8.94587 8.76237 8.96696 8.85168 8.96696 8.94224H10.1336C10.1336 8.67056 10.0704 8.40262 9.94887 8.15962L8.90538 8.68137ZM7.47783 4.78279C7.37035 4.99776 7.06357 4.99776 6.95609 4.78279L7.99958 4.26104C7.67713 3.61612 6.7568 3.61612 6.43434 4.26104L7.47783 4.78279ZM5.46696 8.94224C5.46696 8.85168 5.48804 8.76237 5.52854 8.68137L4.48505 8.15962C4.36355 8.40262 4.30029 8.67056 4.30029 8.94224H5.46696ZM7.21696 9.25016C6.36071 9.25016 5.65237 9.00106 5.24764 8.67785L4.51961 9.58949C5.17915 10.1162 6.16501 10.4168 7.21696 10.4168V9.25016ZM9.18628 8.67785C8.78155 9.00106 8.07321 9.25016 7.21696 9.25016V10.4168C8.26891 10.4168 9.25477 10.1162 9.91431 9.58949L9.18628 8.67785ZM13.0503 7.50016C13.0503 10.7218 10.4386 13.3335 7.21696 13.3335V14.5002C11.083 14.5002 14.217 11.3662 14.217 7.50016H13.0503ZM7.21696 13.3335C3.9953 13.3335 1.38363 10.7218 1.38363 7.50016H0.21696C0.21696 11.3662 3.35097 14.5002 7.21696 14.5002V13.3335ZM1.38363 7.50016C1.38363 4.2785 3.9953 1.66683 7.21696 1.66683V0.500163C3.35097 0.500163 0.21696 3.63417 0.21696 7.50016H1.38363ZM7.21696 1.66683C10.4386 1.66683 13.0503 4.2785 13.0503 7.50016H14.217C14.217 3.63417 11.083 0.500163 7.21696 0.500163V1.66683Z" fill="white"/>
</svg>