<svg xmlns="http://www.w3.org/2000/svg" width="16" height="16" viewBox="0 0 16 16" fill="none">
  <g clip-path="url(#clip0_1_3160)">
    <path d="M1.33333 9.33333H7.33333V16H1.33333V9.33333ZM8.66667 16H14.6667V9.33333H8.66667V16ZM16 6.66667V8H8.66667V5.96867C8.44933 5.988 8.228 6 8 6C7.772 6 7.55067 5.988 7.33333 5.96867V8H0V6.66667C0 6.13623 0.210714 5.62753 0.585786 5.25245C0.960859 4.87738 1.46957 4.66667 2 4.66667H4.08933C3.62727 4.24539 3.26112 3.72974 3.01567 3.15464C2.77021 2.57955 2.6512 1.95843 2.66667 1.33333H4C4 3.254 5.314 4.20467 6.768 4.53333C6.33142 3.75453 6.06937 2.89013 6 2C6 1.46957 6.21071 0.960859 6.58579 0.585786C6.96086 0.210714 7.46957 0 8 0C8.53043 0 9.03914 0.210714 9.41421 0.585786C9.78929 0.960859 10 1.46957 10 2C9.93064 2.89013 9.66858 3.75453 9.232 4.53333C10.686 4.20467 12 3.254 12 1.33333H13.3333C13.3488 1.95843 13.2298 2.57955 12.9843 3.15464C12.7389 3.72974 12.3727 4.24539 11.9107 4.66667H14C14.5304 4.66667 15.0391 4.87738 15.4142 5.25245C15.7893 5.62753 16 6.13623 16 6.66667ZM7.33333 2C7.41381 2.70855 7.64085 3.39261 8 4.00867C8.35915 3.39261 8.58619 2.70855 8.66667 2C8.66667 1.82319 8.59643 1.65362 8.47141 1.5286C8.34638 1.40357 8.17681 1.33333 8 1.33333C7.82319 1.33333 7.65362 1.40357 7.5286 1.5286C7.40357 1.65362 7.33333 1.82319 7.33333 2Z" fill="#888888"/>
  </g>
  <defs>
    <clipPath id="clip0_1_3160">
      <rect width="16" height="16" fill="white"/>
    </clipPath>
  </defs>
</svg>