<svg xmlns="http://www.w3.org/2000/svg" width="23" height="33" viewBox="0 0 23 33" fill="none">
  <circle cx="11.4108" cy="16.421" r="1.35017" fill="url(#paint0_linear_103_1085)"/>
  <path d="M11.0876 30.7135C11.0883 30.7875 11.0874 30.8593 11.0849 30.9284C11.0849 30.8559 11.0858 30.7843 11.0876 30.7135C11.0702 28.9264 10.0848 25.8057 6.27527 25.4619C5.99818 25.4712 5.73904 25.4589 5.5085 25.4311C5.77599 25.4293 6.03141 25.4399 6.27527 25.4619C8.23229 25.3965 11.0849 24.2574 11.0849 19.9338C11.0978 21.725 12.1662 25.2668 16.2919 25.4256C16.3928 25.4245 16.4899 25.4265 16.5822 25.4311C16.4838 25.4311 16.387 25.4293 16.2919 25.4256C14.4211 25.4456 11.1938 26.506 11.0876 30.7135Z" fill="#D56AFF"/>
  <path d="M11.0849 30.9284C11.1508 29.0828 10.1278 25.3995 5.5085 25.4311C7.3673 25.6553 11.0849 24.8695 11.0849 19.9338C11.0981 21.7663 12.216 25.4311 16.5822 25.4311C14.7498 25.3389 11.0849 26.3091 11.0849 30.9284Z" stroke="#D56AFF" stroke-width="2.63429" stroke-miterlimit="3.99393" stroke-linejoin="round"/>
  <path d="M11.9124 2.28649C11.9117 2.21246 11.9126 2.14072 11.9151 2.07156C11.9151 2.1441 11.9142 2.21574 11.9124 2.28649C11.9298 4.0736 12.9152 7.19433 16.7247 7.53806C17.0018 7.5288 17.261 7.54106 17.4915 7.56886C17.224 7.57069 16.9686 7.56007 16.7247 7.53806C14.7677 7.60348 11.9151 8.74261 11.9151 13.0662C11.9022 11.275 10.8338 7.73316 6.70814 7.57438C6.60717 7.57546 6.51015 7.57351 6.41779 7.56886C6.51621 7.56886 6.61299 7.57072 6.70814 7.57438C8.57891 7.55439 11.8062 6.49399 11.9124 2.28649Z" fill="white"/>
  <path d="M11.9151 2.07156C11.8492 3.91718 12.8722 7.6005 17.4915 7.56886C15.6327 7.34475 11.9151 8.13045 11.9151 13.0662C11.9019 11.2337 10.784 7.56886 6.41779 7.56886C8.25022 7.66114 11.9151 6.69087 11.9151 2.07156Z" stroke="white" stroke-width="2.63429" stroke-miterlimit="3.99393" stroke-linejoin="round"/>
  <path d="M16.5812 25.4008C19.9153 25.1569 24.7854 22.2848 16.2441 15.2288" stroke="url(#paint1_linear_103_1085)" stroke-width="2.63429"/>
  <path d="M6.41875 7.59917C3.08469 7.84313 -1.78535 10.7152 6.75594 17.7711" stroke="url(#paint2_linear_103_1085)" stroke-width="2.63429"/>
  <defs>
    <linearGradient id="paint0_linear_103_1085" x1="10.0606" y1="16.421" x2="12.761" y2="16.421" gradientUnits="userSpaceOnUse">
      <stop stop-color="#DD8EFF"/>
      <stop offset="1" stop-color="white"/>
    </linearGradient>
    <linearGradient id="paint1_linear_103_1085" x1="16.2441" y1="15.2288" x2="18.6305" y2="25.4008" gradientUnits="userSpaceOnUse">
      <stop stop-color="#1C1C1C"/>
      <stop offset="1" stop-color="#D56AFF"/>
    </linearGradient>
    <linearGradient id="paint2_linear_103_1085" x1="4.36946" y1="7.59917" x2="6.75594" y2="17.7711" gradientUnits="userSpaceOnUse">
      <stop stop-color="white"/>
      <stop offset="1" stop-color="#1C1C1C"/>
    </linearGradient>
  </defs>
</svg>