<svg xmlns="http://www.w3.org/2000/svg" width="20" height="20" viewBox="0 0 20 20" fill="none">
  <path d="M10 5.3667V8.1417" stroke="white" stroke-width="1.36364" stroke-miterlimit="10" stroke-linecap="round"/>
  <path d="M10.016 1.66602C6.94931 1.66602 4.46597 4.14935 4.46597 7.21602V8.96602C4.46597 9.53268 4.23264 10.3827 3.94097 10.866L2.88264 12.6327C2.23264 13.7244 2.68264 14.941 3.88264 15.341C7.86597 16.666 12.1743 16.666 16.1576 15.341C17.2826 14.966 17.766 13.6494 17.1576 12.6327L16.0993 10.866C15.8076 10.3827 15.5743 9.52435 15.5743 8.96602V7.21602C15.566 4.16602 13.066 1.66602 10.016 1.66602Z" stroke="white" stroke-width="1.36364" stroke-miterlimit="10" stroke-linecap="round"/>
  <path d="M12.7781 15.6826C12.7781 17.2076 11.5281 18.4576 10.0031 18.4576C9.24482 18.4576 8.54482 18.141 8.04482 17.641C7.54482 17.141 7.22815 16.441 7.22815 15.6826" stroke="white" stroke-width="1.36364" stroke-miterlimit="10"/>
</svg>