<svg xmlns="http://www.w3.org/2000/svg" width="17" height="17" viewBox="0 0 17 17" fill="none">
  <path d="M14.2022 6.10299C14.2022 6.47118 14.5007 6.76965 14.8689 6.76965C15.2371 6.76965 15.5356 6.47118 15.5356 6.10299H14.2022ZM11.5356 2.10299C11.1674 2.10299 10.8689 2.40146 10.8689 2.76965C10.8689 3.13784 11.1674 3.43632 11.5356 3.43632V2.10299ZM8.39749 8.29825C8.13714 8.5586 8.13714 8.98071 8.39749 9.24106C8.65784 9.50141 9.07995 9.50141 9.3403 9.24106L8.39749 8.29825ZM14.8326 2.95166L14.2386 3.25431L14.2386 3.25432L14.8326 2.95166ZM14.6869 2.80598L14.3842 3.39999L14.3842 3.39999L14.6869 2.80598ZM8.8689 4.76965C9.23709 4.76965 9.53556 4.47118 9.53556 4.10299C9.53556 3.7348 9.23709 3.43632 8.8689 3.43632V4.76965ZM14.2022 8.76965C14.2022 8.40146 13.9038 8.10299 13.5356 8.10299C13.1674 8.10299 12.8689 8.40146 12.8689 8.76965H14.2022ZM4.32492 14.479L4.62758 13.885L4.32492 14.479ZM3.15955 13.3136L2.56554 13.6163L3.15955 13.3136ZM12.0795 14.479L11.7769 13.885L12.0795 14.479ZM13.2449 13.3136L12.6509 13.011L13.2449 13.3136ZM3.15955 5.55901L2.56554 5.25635L2.56554 5.25635L3.15955 5.55901ZM4.32492 4.39364L4.02226 3.79963H4.02226L4.32492 4.39364ZM15.5356 6.10299V3.30299H14.2022V6.10299H15.5356ZM14.3356 2.10299H11.5356V3.43632H14.3356V2.10299ZM14.2999 2.39588L8.39749 8.29825L9.3403 9.24106L15.2427 3.33869L14.2999 2.39588ZM15.5356 3.30299C15.5356 3.22065 15.5361 3.11879 15.5288 3.02977C15.5209 2.93295 15.5006 2.79429 15.4266 2.649L14.2386 3.25432C14.2201 3.2181 14.21 3.18588 14.2047 3.1632C14.1998 3.14263 14.1994 3.13183 14.1999 3.13834C14.2005 3.14512 14.2013 3.16001 14.2017 3.18984C14.2022 3.21965 14.2022 3.25479 14.2022 3.30299H15.5356ZM14.3356 3.43632C14.3838 3.43632 14.4189 3.43634 14.4487 3.43681C14.4785 3.43727 14.4934 3.43809 14.5002 3.43865C14.5067 3.43918 14.4959 3.43874 14.4754 3.4339C14.4527 3.42855 14.4205 3.41844 14.3842 3.39999L14.9896 2.21198C14.8443 2.13795 14.7056 2.11765 14.6088 2.10974C14.5198 2.10247 14.4179 2.10299 14.3356 2.10299V3.43632ZM15.4266 2.649C15.3786 2.55492 15.3164 2.46962 15.2427 2.39588L14.2999 3.33869C14.2753 3.31411 14.2545 3.28567 14.2386 3.25431L15.4266 2.649ZM15.2427 2.39588C15.1689 2.32214 15.0836 2.25992 14.9896 2.21198L14.3842 3.39999C14.3529 3.38401 14.3244 3.36326 14.2999 3.33869L15.2427 2.39588ZM9.2689 14.103H7.13556V15.4363H9.2689V14.103ZM3.53556 10.503V8.36965H2.20223V10.503H3.53556ZM7.13556 4.76965H8.8689V3.43632H7.13556V4.76965ZM12.8689 8.76965V10.503H14.2022V8.76965H12.8689ZM7.13556 14.103C6.37783 14.103 5.84962 14.1025 5.43839 14.0689C5.03494 14.0359 4.80315 13.9745 4.62758 13.885L4.02226 15.073C4.41712 15.2742 4.84391 15.3581 5.32981 15.3978C5.80793 15.4368 6.39983 15.4363 7.13556 15.4363V14.103ZM2.20223 10.503C2.20223 11.2387 2.20171 11.8306 2.24078 12.3087C2.28047 12.7946 2.36435 13.2214 2.56554 13.6163L3.75355 13.011C3.66409 12.8354 3.60264 12.6036 3.56968 12.2002C3.53608 11.7889 3.53556 11.2607 3.53556 10.503H2.20223ZM4.62758 13.885C4.25126 13.6933 3.9453 13.3873 3.75355 13.011L2.56554 13.6163C2.88512 14.2435 3.39505 14.7534 4.02226 15.073L4.62758 13.885ZM9.2689 15.4363C10.0046 15.4363 10.5965 15.4368 11.0746 15.3978C11.5605 15.3581 11.9873 15.2742 12.3822 15.073L11.7769 13.885C11.6013 13.9745 11.3695 14.0359 10.9661 14.0689C10.5548 14.1025 10.0266 14.103 9.2689 14.103V15.4363ZM12.8689 10.503C12.8689 11.2607 12.8684 11.7889 12.8348 12.2002C12.8018 12.6036 12.7404 12.8354 12.6509 13.011L13.8389 13.6163C14.0401 13.2214 14.124 12.7946 14.1637 12.3087C14.2027 11.8306 14.2022 11.2387 14.2022 10.503H12.8689ZM12.3822 15.073C13.0094 14.7534 13.5193 14.2435 13.8389 13.6163L12.6509 13.011C12.4592 13.3873 12.1532 13.6933 11.7769 13.885L12.3822 15.073ZM3.53556 8.36965C3.53556 7.61192 3.53608 7.08371 3.56968 6.67248C3.60264 6.26904 3.66409 6.03724 3.75355 5.86167L2.56554 5.25635C2.36435 5.65121 2.28047 6.078 2.24078 6.5639C2.20171 7.04202 2.20223 7.63392 2.20223 8.36965H3.53556ZM7.13556 3.43632C6.39983 3.43632 5.80793 3.4358 5.32981 3.47487C4.84391 3.51456 4.41712 3.59844 4.02226 3.79963L4.62758 4.98764C4.80315 4.89818 5.03494 4.83673 5.43839 4.80377C5.84962 4.77017 6.37783 4.76965 7.13556 4.76965V3.43632ZM3.75355 5.86167C3.9453 5.48535 4.25126 5.17939 4.62758 4.98764L4.02226 3.79963C3.39505 4.11921 2.88512 4.62915 2.56554 5.25635L3.75355 5.86167Z" fill="#6F6F6F"/>
</svg>