<svg xmlns="http://www.w3.org/2000/svg" width="62" height="61" viewBox="0 0 62 61" fill="none">
  <rect x="0.974121" width="60.0518" height="60.0518" rx="11.6229" fill="url(#paint0_linear_115_1112)"/>
  <rect x="1.45841" y="0.484288" width="59.0832" height="59.0832" rx="11.1386" stroke="#645AD0" stroke-opacity="0.5" stroke-width="0.968577"/>
  <path d="M31.072 39.0344C31.0732 39.1606 31.0716 39.2829 31.0674 39.4009C31.0674 39.2772 31.0689 39.155 31.072 39.0344C31.0423 35.9866 29.3618 30.6646 22.8651 30.0784C22.3925 30.0942 21.9506 30.0733 21.5574 30.0259C22.0136 30.0228 22.4492 30.0409 22.8651 30.0784C26.2025 29.9668 31.0674 28.0242 31.0674 20.6509C31.0893 23.7054 32.9113 29.7457 39.9472 30.0165C40.1194 30.0146 40.2849 30.0179 40.4424 30.0259C40.2745 30.0259 40.1095 30.0227 39.9472 30.0165C36.7568 30.0505 31.2531 31.8589 31.072 39.0344Z" fill="#D56AFF"/>
  <path d="M31.0674 39.4009C31.1798 36.2534 29.4351 29.9719 21.5574 30.0259C24.7274 30.4081 31.0674 29.0681 31.0674 20.6509C31.0899 23.7759 32.9963 30.0259 40.4424 30.0259C37.3174 29.8685 31.0674 31.5232 31.0674 39.4009Z" stroke="#D56AFF" stroke-width="4.49248" stroke-miterlimit="3.99393" stroke-linejoin="round"/>
  <defs>
    <linearGradient id="paint0_linear_115_1112" x1="31" y1="0" x2="31" y2="60.0518" gradientUnits="userSpaceOnUse">
      <stop stop-color="#17083F"/>
      <stop offset="1"/>
    </linearGradient>
  </defs>
</svg>