<svg xmlns="http://www.w3.org/2000/svg" width="49" height="49" viewBox="0 0 49 49" fill="none">
  <rect x="0.151489" y="0.766846" width="48.0516" height="48.0516" rx="9.30031" fill="url(#paint0_linear_69_4660)"/>
  <rect x="0.539002" y="1.15436" width="47.2766" height="47.2766" rx="8.91279" stroke="#645AD0" stroke-opacity="0.5" stroke-width="0.775026"/>
  <circle cx="24.088" cy="24.7136" r="1.3509" fill="url(#paint1_linear_69_4660)"/>
  <path d="M23.7646 39.0138C23.7653 39.0879 23.7644 39.1597 23.7619 39.2289C23.7619 39.1563 23.7628 39.0846 23.7646 39.0138C23.7472 37.2258 22.7613 34.1033 18.9497 33.7594C18.6724 33.7687 18.4132 33.7564 18.1825 33.7286C18.4501 33.7268 18.7057 33.7374 18.9497 33.7594C20.9078 33.694 23.7619 32.5542 23.7619 28.2283C23.7748 30.0204 24.8438 33.5642 28.9717 33.7231C29.0727 33.722 29.1698 33.724 29.2622 33.7286C29.1637 33.7286 29.0669 33.7267 28.9717 33.7231C27.0999 33.7431 23.8709 34.8041 23.7646 39.0138Z" fill="#D56AFF"/>
  <path d="M23.7619 39.2289C23.8279 37.3823 22.8043 33.697 18.1825 33.7286C20.0423 33.9528 23.7619 33.1667 23.7619 28.2283C23.7751 30.0618 24.8936 33.7286 29.2622 33.7286C27.4288 33.6363 23.7619 34.6071 23.7619 39.2289Z" stroke="#D56AFF" stroke-width="2.63572" stroke-miterlimit="3.99393" stroke-linejoin="round"/>
  <path d="M24.5896 10.5714C24.5889 10.4974 24.5898 10.4256 24.5923 10.3564C24.5923 10.429 24.5914 10.5006 24.5896 10.5714C24.607 12.3595 25.5929 15.4819 29.4046 15.8258C29.6818 15.8166 29.9411 15.8288 30.1718 15.8567C29.9041 15.8585 29.6486 15.8479 29.4046 15.8258C27.4465 15.8913 24.5923 17.031 24.5923 21.3569C24.5794 19.5648 23.5105 16.021 19.3826 15.8622C19.2815 15.8633 19.1845 15.8613 19.092 15.8567C19.1905 15.8567 19.2874 15.8585 19.3826 15.8622C21.2543 15.8422 24.4833 14.7812 24.5896 10.5714Z" fill="white"/>
  <path d="M24.5923 10.3564C24.5264 12.203 25.55 15.8883 30.1718 15.8567C28.3119 15.6324 24.5923 16.4186 24.5923 21.3569C24.5791 19.5235 23.4606 15.8567 19.092 15.8567C20.9255 15.949 24.5923 14.9782 24.5923 10.3564Z" stroke="white" stroke-width="2.63572" stroke-miterlimit="3.99393" stroke-linejoin="round"/>
  <path d="M29.261 33.6983C32.5969 33.4542 37.4696 30.5806 28.9237 23.5208" stroke="url(#paint2_linear_69_4660)" stroke-width="2.63572"/>
  <path d="M19.0932 15.887C15.7573 16.1311 10.8847 19.0048 19.4306 26.0645" stroke="url(#paint3_linear_69_4660)" stroke-width="2.63572"/>
  <defs>
    <linearGradient id="paint0_linear_69_4660" x1="24.1773" y1="0.766846" x2="24.1773" y2="48.8184" gradientUnits="userSpaceOnUse">
      <stop stop-color="#17083F"/>
      <stop offset="1"/>
    </linearGradient>
    <linearGradient id="paint1_linear_69_4660" x1="22.7371" y1="24.7136" x2="25.4389" y2="24.7136" gradientUnits="userSpaceOnUse">
      <stop stop-color="#DD8EFF"/>
      <stop offset="1" stop-color="white"/>
    </linearGradient>
    <linearGradient id="paint2_linear_69_4660" x1="28.9237" y1="23.5208" x2="31.3114" y2="33.6983" gradientUnits="userSpaceOnUse">
      <stop stop-color="white" stop-opacity="0"/>
      <stop offset="1" stop-color="#D56AFF"/>
    </linearGradient>
    <linearGradient id="paint3_linear_69_4660" x1="17.0428" y1="15.887" x2="19.4306" y2="26.0645" gradientUnits="userSpaceOnUse">
      <stop stop-color="white"/>
      <stop offset="1" stop-color="white" stop-opacity="0"/>
    </linearGradient>
  </defs>
</svg>