<svg width="17" height="18" viewBox="0 0 17 18" fill="none" xmlns="http://www.w3.org/2000/svg">
<path fill-rule="evenodd" clip-rule="evenodd" d="M8.60384 17.3334C4.00384 17.3334 0.270508 13.6084 0.270508 9.00008C0.270508 4.40008 4.00384 0.666748 8.60384 0.666748C13.2122 0.666748 16.9372 4.40008 16.9372 9.00008C16.9372 13.6084 13.2122 17.3334 8.60384 17.3334ZM11.2627 12.0918C11.3627 12.1501 11.471 12.1835 11.5877 12.1835C11.796 12.1835 12.0043 12.0751 12.121 11.8751C12.296 11.5835 12.2043 11.2001 11.9043 11.0168L8.93766 9.25015V5.40015C8.93766 5.05015 8.65433 4.77515 8.31266 4.77515C7.971 4.77515 7.68766 5.05015 7.68766 5.40015V9.60848C7.68766 9.82515 7.80433 10.0251 7.996 10.1418L11.2627 12.0918Z" fill="#D56AFF"/>
</svg>
