<svg xmlns="http://www.w3.org/2000/svg" width="20" height="19" viewBox="0 0 20 19" fill="none">
  <path fill-rule="evenodd" clip-rule="evenodd" d="M15.7689 6.23867H20C20 2.84147 17.9644 0.856873 14.5156 0.856873H5.48444C2.03556 0.856873 0 2.84147 0 6.19534V13.5184C0 16.8723 2.03556 18.8569 5.48444 18.8569H14.5156C17.9644 18.8569 20 16.8723 20 13.5184V13.2064H15.7689C13.8052 13.2064 12.2133 11.6544 12.2133 9.73988C12.2133 7.82536 13.8052 6.27334 15.7689 6.27334V6.23867ZM15.7689 7.72928H19.2533C19.6657 7.72928 20 8.05521 20 8.45726V10.9878C19.9952 11.3879 19.6637 11.7111 19.2533 11.7158H15.8489C14.8548 11.7288 13.9855 11.0652 13.76 10.1212C13.6471 9.53516 13.8056 8.93044 14.1931 8.46909C14.5805 8.00774 15.1573 7.73695 15.7689 7.72928ZM15.9205 10.3899H16.2493C16.6715 10.3899 17.0138 10.0562 17.0138 9.64456C17.0138 9.23294 16.6715 8.89926 16.2493 8.89926H15.9205C15.7185 8.89694 15.5241 8.97353 15.3804 9.11193C15.2368 9.25032 15.156 9.43902 15.156 9.6359C15.156 10.0489 15.4968 10.3851 15.9205 10.3899ZM4.73808 6.23866H10.3825C10.8047 6.23866 11.147 5.90497 11.147 5.49335C11.147 5.08173 10.8047 4.74805 10.3825 4.74805H4.73808C4.31933 4.74802 3.9785 5.07645 3.97363 5.48469C3.9736 5.89773 4.31445 6.23391 4.73808 6.23866Z" fill="#9BA1B0"/>
</svg>